<svg width="116" height="40" viewBox="0 0 116 40" fill="none" xmlns="http://www.w3.org/2000/svg">
<path d="M53.7048 15.1924C52.8238 15.1924 52.0528 15.052 51.382 14.7713C50.7112 14.4805 50.1806 14.0795 49.7801 13.5681C49.3796 13.0568 49.1393 12.4752 49.0592 11.8035H51.6423C51.7224 12.1945 51.9327 12.5254 52.2831 12.8061C52.6435 13.0768 53.1041 13.2072 53.6648 13.2072C54.2254 13.2072 54.6359 13.0969 54.8862 12.8663C55.1566 12.6357 55.2867 12.375 55.2867 12.0842C55.2867 11.6531 55.0965 11.3724 54.7261 11.222C54.3556 11.0615 53.835 10.9111 53.1642 10.7607C52.7336 10.6705 52.3031 10.5502 51.8626 10.4199C51.4221 10.2895 51.0116 10.1191 50.6411 9.91854C50.2807 9.70798 49.9903 9.43727 49.7601 9.11643C49.5298 8.78556 49.4196 8.37448 49.4196 7.89322C49.4196 7.0109 49.7701 6.26896 50.4609 5.66738C51.1718 5.0658 52.1529 4.76501 53.4245 4.76501C54.5959 4.76501 55.537 5.03572 56.2279 5.58717C56.9387 6.13861 57.3592 6.89059 57.4894 7.85311H55.0665C54.9163 7.12119 54.3656 6.75022 53.4045 6.75022C52.9239 6.75022 52.5534 6.84046 52.2831 7.03096C52.0328 7.22146 51.9026 7.45206 51.9026 7.7328C51.9026 8.01353 52.0929 8.26419 52.4833 8.43464C52.8738 8.60509 53.3844 8.76551 54.0252 8.9159C54.716 9.07632 55.3568 9.2568 55.9275 9.45732C56.5182 9.64782 56.9788 9.92856 57.3292 10.3196C57.6796 10.6906 57.8498 11.232 57.8498 11.9439C57.8598 12.5555 57.6996 13.1169 57.3692 13.6082C57.0388 14.0995 56.5583 14.4905 55.9275 14.7713C55.2967 15.052 54.5558 15.1924 53.7048 15.1924Z" fill="#0E3E45"/>
<path d="M60.4329 19.3633L62.7357 14.29H62.135L58.2703 5.00564H61.0537L63.837 12.004L66.7406 5.00564H69.4638L63.1562 19.3633H60.4329Z" fill="#0E3E45"/>
<path d="M74.3497 15.1924C73.4687 15.1924 72.6977 15.052 72.0269 14.7713C71.3561 14.4805 70.8255 14.0795 70.425 13.5681C70.0245 13.0568 69.7842 12.4752 69.7041 11.8035H72.2872C72.3673 12.1945 72.5776 12.5254 72.928 12.8061C73.2884 13.0768 73.749 13.2072 74.3097 13.2072C74.8704 13.2072 75.2809 13.0969 75.5312 12.8663C75.8015 12.6357 75.9316 12.375 75.9316 12.0842C75.9316 11.6531 75.7414 11.3724 75.371 11.222C75.0005 11.0615 74.4799 10.9111 73.8091 10.7607C73.3786 10.6705 72.948 10.5502 72.5075 10.4199C72.067 10.2895 71.6565 10.1191 71.286 9.91854C70.9256 9.70798 70.6353 9.43727 70.405 9.11643C70.1747 8.78556 70.0646 8.37448 70.0646 7.89322C70.0646 7.0109 70.415 6.26896 71.1058 5.66738C71.8167 5.0658 72.7979 4.76501 74.0694 4.76501C75.2408 4.76501 76.1819 5.03572 76.8728 5.58717C77.5836 6.13861 78.0041 6.89059 78.1343 7.85311H75.7114C75.5612 7.12119 75.0105 6.75022 74.0494 6.75022C73.5688 6.75022 73.1983 6.84046 72.928 7.03096C72.6777 7.22146 72.5476 7.45206 72.5476 7.7328C72.5476 8.01353 72.7378 8.26419 73.1283 8.43464C73.5187 8.60509 74.0293 8.76551 74.6701 8.9159C75.361 9.07632 76.0017 9.2568 76.5724 9.45732C77.1631 9.64782 77.6237 9.92856 77.9741 10.3196C78.3245 10.6906 78.4947 11.232 78.4947 11.9439C78.5048 12.5555 78.3445 13.1169 78.0141 13.6082C77.6838 14.0995 77.2032 14.4905 76.5724 14.7713C75.9417 15.052 75.2008 15.1924 74.3497 15.1924Z" fill="#0E3E45"/>
<path d="M84.482 14.9517C83.4407 14.9517 82.6097 14.7011 81.9789 14.1897C81.3482 13.6784 81.0378 12.776 81.0378 11.4826V7.15127H79.3358V5.00564H81.0378L81.3382 2.33864H83.6009V5.00564H86.2842V7.15127H83.6009V11.5027C83.6009 11.984 83.701 12.3148 83.9013 12.5053C84.1115 12.6758 84.472 12.766 84.9826 12.766H86.2241V14.9517H84.482Z" fill="#0E3E45"/>
<path d="M92.6518 15.1924C91.6506 15.1924 90.7595 14.9818 89.9886 14.5507C89.2177 14.1196 88.6069 13.518 88.1664 12.746C87.7259 11.9739 87.5056 11.0716 87.5056 10.0589C87.5056 9.04625 87.7159 8.1138 88.1464 7.31169C88.5869 6.50959 89.1876 5.88796 89.9486 5.4468C90.7195 4.99561 91.6306 4.76501 92.6718 4.76501C93.643 4.76501 94.5041 4.97556 95.255 5.40669C96.0059 5.83782 96.5866 6.41935 96.9971 7.17132C97.4276 7.90325 97.6378 8.7254 97.6378 9.6378C97.6378 9.78819 97.6378 9.93859 97.6178 10.099C97.6178 10.2594 97.6178 10.4299 97.5978 10.6003H90.0487C90.0988 11.3724 90.3691 11.984 90.8497 12.4251C91.3402 12.8663 91.941 13.0869 92.6318 13.0869C93.1524 13.0869 93.583 12.9766 93.9334 12.746C94.2938 12.5053 94.5641 12.1945 94.7343 11.8235H97.3375C97.1473 12.4552 96.8369 13.0267 96.3963 13.5481C95.9658 14.0594 95.4352 14.4605 94.7944 14.7512C94.1637 15.042 93.4528 15.1924 92.6518 15.1924ZM92.6718 6.85048C92.0411 6.85048 91.4904 7.03096 91.0098 7.3919C90.5293 7.74282 90.2189 8.27422 90.0887 8.99611H95.0347C94.9947 8.3444 94.7544 7.82303 94.3138 7.43201C93.8733 7.04098 93.3226 6.85048 92.6718 6.85048Z" fill="#0E3E45"/>
<path d="M99.4 14.9517V5.00564H101.663L101.883 6.34917C102.203 5.8679 102.624 5.4869 103.144 5.20617C103.675 4.9154 104.296 4.76501 104.987 4.76501C106.519 4.76501 107.61 5.35656 108.251 6.54969C108.611 5.99825 109.092 5.56711 109.692 5.24627C110.303 4.92543 110.974 4.76501 111.695 4.76501C112.986 4.76501 113.988 5.15603 114.678 5.92806C115.369 6.70009 115.72 7.84309 115.72 9.33701V14.9517H113.157V9.57764C113.157 8.7254 112.986 8.06367 112.656 7.61248C112.336 7.1613 111.835 6.93069 111.154 6.93069C110.473 6.93069 109.903 7.18135 109.472 7.69269C109.062 8.20404 108.851 8.90588 108.851 9.81827V14.9517H106.288V9.57764C106.288 8.7254 106.118 8.06367 105.788 7.61248C105.457 7.1613 104.937 6.93069 104.246 6.93069C103.555 6.93069 103.014 7.18135 102.584 7.69269C102.173 8.20404 101.963 8.90588 101.963 9.81827V14.9517H99.4Z" fill="#0E3E45"/>
<path d="M53.024 35.245C52.173 35.245 51.4721 35.1147 50.9215 34.844C50.3708 34.5632 49.9703 34.1923 49.7 33.7411C49.4297 33.2899 49.2995 32.7886 49.2995 32.2371C49.2995 31.3147 49.6599 30.5627 50.3808 29.9912C51.1017 29.4197 52.183 29.129 53.6247 29.129H56.1478V28.8883C56.1478 28.2065 55.9575 27.7052 55.5671 27.3844C55.1766 27.0635 54.696 26.9031 54.1253 26.9031C53.6047 26.9031 53.1542 27.0335 52.7637 27.2841C52.3732 27.5247 52.1329 27.8857 52.0428 28.367H49.5398C49.6099 27.6451 49.8502 27.0134 50.2607 26.482C50.6912 25.9506 51.2318 25.5395 51.9026 25.2588C52.5735 24.968 53.3143 24.8176 54.1454 24.8176C55.5571 24.8176 56.6784 25.1686 57.4894 25.8804C58.3004 26.5923 58.7109 27.5949 58.7109 28.8883V35.0044H56.5282L56.2879 33.4002C55.9976 33.9316 55.5771 34.3727 55.0464 34.7236C54.5258 35.0746 53.855 35.245 53.024 35.245ZM53.6047 33.2398C54.3356 33.2398 54.9063 32.9991 55.3068 32.5179C55.7172 32.0366 55.9776 31.445 56.0877 30.7332H53.9051C53.2242 30.7332 52.7336 30.8635 52.4433 31.1142C52.1529 31.3548 52.0028 31.6556 52.0028 32.0165C52.0028 32.4076 52.1529 32.7084 52.4433 32.9189C52.7336 33.1295 53.1241 33.2398 53.6047 33.2398Z" fill="#0E3E45"/>
<path d="M65.1186 35.245C64.1875 35.245 63.3465 35.0144 62.6156 34.5632C61.8847 34.112 61.304 33.4904 60.8735 32.6983C60.443 31.9063 60.2327 31.0139 60.2327 30.0113C60.2327 29.0086 60.443 28.1163 60.8735 27.3443C61.304 26.5522 61.8847 25.9406 62.6156 25.4994C63.3465 25.0483 64.1875 24.8176 65.1186 24.8176C65.8695 24.8176 66.5203 24.958 67.081 25.2387C67.6416 25.5195 68.0922 25.9105 68.4426 26.4219V20.5665H71.0057V35.0044H68.7229L68.4426 33.5806C68.1222 34.0218 67.6917 34.4128 67.1611 34.7437C66.6404 35.0746 65.9596 35.245 65.1186 35.245ZM65.6593 32.9991C66.4903 32.9991 67.1611 32.7284 67.6817 32.177C68.2123 31.6155 68.4827 30.9036 68.4827 30.0313C68.4827 29.159 68.2123 28.4572 67.6817 27.9057C67.1611 27.3443 66.4903 27.0635 65.6593 27.0635C64.8282 27.0635 64.1675 27.3342 63.6368 27.8857C63.1062 28.4371 62.8358 29.139 62.8358 30.0113C62.8358 30.8836 63.1062 31.5954 63.6368 32.1569C64.1675 32.7184 64.8483 32.9991 65.6593 32.9991Z" fill="#0E3E45"/>
<path d="M73.0181 35.0044V25.0583H75.2809L75.5011 26.4018C75.8215 25.9205 76.242 25.5395 76.7627 25.2588C77.2933 24.968 77.914 24.8176 78.6049 24.8176C80.1367 24.8176 81.228 25.4092 81.8688 26.6023C82.2292 26.0509 82.7098 25.6197 83.3106 25.2989C83.9213 24.9781 84.5921 24.8176 85.313 24.8176C86.6045 24.8176 87.6057 25.2087 88.2966 25.9807C88.9874 26.7527 89.3378 27.8957 89.3378 29.3896V35.0044H86.7747V29.6303C86.7747 28.778 86.6045 28.1163 86.2741 27.6651C85.9537 27.2139 85.4531 26.9833 84.7723 26.9833C84.0915 26.9833 83.5208 27.234 83.0903 27.7453C82.6798 28.2567 82.4695 28.9585 82.4695 29.8709V35.0044H79.9064V29.6303C79.9064 28.778 79.7362 28.1163 79.4058 27.6651C79.0754 27.2139 78.5548 26.9833 77.864 26.9833C77.1731 26.9833 76.6325 27.234 76.202 27.7453C75.7915 28.2567 75.5812 28.9585 75.5812 29.8709V35.0044H73.0181Z" fill="#0E3E45"/>
<path d="M92.5517 23.5142C92.0811 23.5142 91.7007 23.3739 91.3903 23.0931C91.1 22.8124 90.9498 22.4615 90.9498 22.0303C90.9498 21.5992 91.1 21.2583 91.3903 20.9876C91.7007 20.7069 92.0811 20.5665 92.5517 20.5665C93.0223 20.5665 93.4027 20.7069 93.6931 20.9876C94.0035 21.2583 94.1536 21.5992 94.1536 22.0303C94.1536 22.4615 94.0035 22.8124 93.6931 23.0931C93.4027 23.3739 93.0223 23.5142 92.5517 23.5142ZM91.2702 35.0044V25.0583H93.8333V35.0044H91.2702Z" fill="#0E3E45"/>
<path d="M95.9058 35.0044V25.0583H98.1685L98.3687 26.7427C98.6791 26.1511 99.1196 25.6899 99.6903 25.339C100.281 24.9881 100.962 24.8176 101.753 24.8176C102.984 24.8176 103.935 25.2087 104.616 25.9807C105.297 26.7527 105.637 27.8957 105.637 29.3896V35.0044H103.074V29.6303C103.074 28.778 102.904 28.1163 102.554 27.6651C102.203 27.2139 101.663 26.9833 100.932 26.9833C100.201 26.9833 99.6202 27.234 99.1497 27.7453C98.6991 28.2567 98.4688 28.9585 98.4688 29.8709V35.0044H95.9058Z" fill="#0E3E45"/>
<path d="M111.595 35.245C110.714 35.245 109.943 35.1046 109.272 34.8239C108.601 34.5331 108.07 34.1321 107.67 33.6207C107.269 33.1094 107.029 32.5279 106.949 31.8561H109.532C109.612 32.2471 109.823 32.578 110.173 32.8588C110.533 33.1295 110.994 33.2598 111.555 33.2598C112.115 33.2598 112.526 33.1495 112.776 32.9189C113.046 32.6883 113.177 32.4276 113.177 32.1369C113.177 31.7057 112.986 31.425 112.616 31.2746C112.245 31.1142 111.725 30.9638 111.054 30.8134C110.624 30.7231 110.193 30.6028 109.752 30.4725C109.312 30.3421 108.901 30.1717 108.531 29.9712C108.171 29.7606 107.88 29.4899 107.65 29.1691C107.42 28.8382 107.31 28.4271 107.31 27.9459C107.31 27.0635 107.66 26.3216 108.351 25.72C109.062 25.1184 110.043 24.8176 111.314 24.8176C112.486 24.8176 113.427 25.0884 114.118 25.6398C114.829 26.1912 115.249 26.9432 115.379 27.9057H112.956C112.806 27.1738 112.255 26.8029 111.294 26.8029C110.814 26.8029 110.443 26.8931 110.173 27.0836C109.923 27.2741 109.793 27.5047 109.793 27.7854C109.793 28.0662 109.983 28.3168 110.373 28.4873C110.764 28.6577 111.274 28.8181 111.915 28.9685C112.606 29.129 113.247 29.3094 113.817 29.51C114.408 29.7005 114.869 29.9812 115.219 30.3722C115.569 30.7432 115.74 31.2846 115.74 31.9965C115.75 32.6081 115.59 33.1696 115.259 33.6609C114.929 34.1521 114.448 34.5432 113.817 34.8239C113.187 35.1046 112.446 35.245 111.595 35.245Z" fill="#0E3E45"/>
<path d="M9.99206 18.6615L12.2047 24.4467L18.232 8.66525L23.6986 22.9929C23.8988 23.5042 24.6197 23.5042 24.8099 22.9929L25.721 20.6166C26.1716 19.4435 27.2929 18.6715 28.5445 18.6715H36.454V13.4679C36.454 11.0014 35.1424 8.7254 33.0098 7.50219L21.6661 0.924928C19.5336 -0.308309 16.9104 -0.308309 14.7778 0.924928L3.44416 7.48214C1.31158 8.71538 0 10.9914 0 13.4478V18.6515H9.99206V18.6615Z" fill="#0E3E45"/>
<path d="M28.6245 21.128C28.3442 21.128 28.0939 21.2984 28.0038 21.5591L27.1327 23.8451C26.1215 26.482 22.397 26.482 21.3958 23.8451L18.242 15.5734L12.2147 31.3548L8.31003 21.1179H0V26.5522C0 29.0187 1.31158 31.2946 3.44416 32.5179L14.7878 39.0751C16.9204 40.3083 19.5436 40.3083 21.6762 39.0751L33.0199 32.5179C35.1524 31.2846 36.464 29.0086 36.464 26.5522V21.1179H28.6346L28.6245 21.128Z" fill="#0E3E45"/>
</svg>
